<?xml version="1.0" encoding="utf-8"?>
<!-- Generator: Adobe Illustrator 15.0.0, SVG Export Plug-In  -->
<!DOCTYPE svg PUBLIC "-//W3C//DTD SVG 1.1//EN" "http://www.w3.org/Graphics/SVG/1.1/DTD/svg11.dtd" [
	<!ENTITY ns_flows "http://ns.adobe.com/Flows/1.0/">
]>
<svg version="1.1"
	 xmlns="http://www.w3.org/2000/svg" xmlns:xlink="http://www.w3.org/1999/xlink" xmlns:a="http://ns.adobe.com/AdobeSVGViewerExtensions/3.0/"
	 x="0px" y="0px" width="121px" height="29px" viewBox="205.089 51.819 121 29"
	 overflow="visible" enable-background="new 205.089 51.819 121 29" xml:space="preserve">
<defs>
</defs>
<g>
	<defs>
		<rect id="SVGID_1_" x="163.338" y="42.387" width="161.851" height="42"/>
	</defs>
	<clipPath id="SVGID_2_">
		<use xlink:href="#SVGID_1_"  overflow="visible"/>
	</clipPath>
	<path clip-path="url(#SVGID_2_)" fill-rule="evenodd" clip-rule="evenodd" fill="#fff" d="M77.303,68.147
		c0.06-0.119,0.172-0.625,0.295-0.675c0.333-0.153,0.669-0.308,1.011-0.466c1.389-0.642,2.774-1.284,4.164-1.927
		c1.943-0.896,3.777-1.988,5.644-3.023c3.563-1.982,6.894-4.399,10.18-6.798c10.059-7.351,18.99-15.985,22.562-25.437
		c1.024-2.715,1.607-6.936-0.814-9.942c-2.771-3.428-6.153-2.856-9.843-0.622c-0.569,0.344-1.122,0.684-1.68,1.021
		c-0.158,0.094-0.386-0.057-0.54-0.119c-0.259-0.102-0.189-0.128-0.151-0.39c0.4-2.32,0.702-3.177,0.934-5.525
		c0.536-5.529-1.677-11.936-7.047-13.739C96.718-1.276,92.134,1.864,89.66,6.52c-1.02,1.925-2.14,3.862-2.942,5.894
		c-0.772,1.943-1.551,3.893-2.323,5.837c-1.648,4.171-3.307,8.326-5.22,12.381c-1.999,4.256-4.253,8.35-6.589,12.427
		c-2.098,3.666-4.133,6.501-6.472,10.013c-0.433,0.856-0.859,0.484-0.997,0.069c-0.943-2.874-3.617-6.599-6.397-6.925
		c-3.147-0.366-5.146,2.291-5.228,4.2c-0.056,0.084-0.229,0.126-0.312,0.158c-1.837-0.186-6.742,1.595-6.194,5.613
		c0.958,3.113,2.378,4.656,5.061,6.494c0.362,0.251,2.688,1.432,2.676,1.468c-0.167,0.554-0.336,1.098-0.501,1.651
		c-0.6,1.965-2.336,3.721-4.23,4.645c-0.358,0.185-0.723,0.351-1.08,0.527c-3.94,1.902-7.956,3.8-12.173,5.026
		c-9.169,2.664-22.382,4.063-30.25,9.895c-3.034,2.085-5.57,4.948-6.268,7.95c-0.331,1.414-0.263,2.934,0.024,4.351
		c0.231,1.119,0.765,2.217,1.509,3.09c2.146,2.491,5.963,3.755,9.12,4.115c2.242,0.26,4.461,0.102,6.636-0.33
		c-0.406,0.97-0.832,1.931-1.097,2.944c-0.661,2.509-0.307,4.204,1.182,6.326c1.571,2.248,5.668,2.81,6.899,2.781
		c6.073-0.133,12.376-2.793,16.95-6.596c6.795-5.663,13.698-13.799,18.804-21.028c2.732-3.881,3.961-6.555,6.496-10.561
		c0.232-0.365,0.829-0.501,1.207-0.609c0.417-0.116,1.116,0.003,1.41,0.372c0.674,0.838,1.008,1.858,1.266,2.89
		c0.548,2.171,0.801,4.386,1.551,6.505c0.519,1.463,1.607,2.99,2.992,3.72c0.72,0.382,1.631,0.535,2.413,0.781
		c0.057,0.017,0.095,0.612,0.105,0.678c0.081,0.55,0.168,1.068,0.312,1.608c0.297,1.086,0.684,2.103,1.2,3.103
		c0.546,1.037,1.175,1.891,1.975,2.737c0.772,0.817,1.688,1.4,2.627,1.993c0.424,0.255,0.473,1.005,0.61,1.462
		c0.404,1.316,1.15,3.126,2.03,4.144c0.791,0.918,1.6,1.665,2.596,2.343c0.454,0.318,0.972,0.549,1.463,0.8
		c0.4,0.218,0.413,0.843,0.656,1.203c1.192,1.744,2.662,3.46,4.553,4.479c0.969,0.528,1.947,1.043,3.027,1.27
		c1.218,0.248,1.89,0.85,2.806,1.666c2.028,1.818,4.532,5.291,7.306,6.171c1.495,0.454,2.045,0.61,3.533,0.481
		c2.553-0.2,3.455-1.2,4.791-3.006c0.646-0.91,0.972-2.446,0.835-3.547c-0.295-2.458-1.289-4.037-2.673-6.088
		c-0.312-0.463-0.744-0.874-1.101-1.303c-0.277-0.315-0.544-0.651-0.842-0.953c-0.835-0.854-1.663-1.713-2.525-2.54
		c-0.218-0.216-0.435-0.425-0.653-0.639c-0.119-0.109-0.15-0.457-0.193-0.6c-0.171-0.579-0.347-1.084-0.6-1.628
		c-0.895-1.983-2.052-3.834-3.711-5.295c-0.362-0.322-0.786-0.677-1.208-0.922c-0.315-0.165-0.624-0.338-0.936-0.508
		c-0.119-0.075-0.172-0.436-0.213-0.56c-0.369-1.107-0.826-2.08-1.541-3.014c-0.999-1.28-5.076-3.549-5.388-4.693
		c-0.224-0.755-0.386-1.668-0.877-2.295c-0.684-0.877-1.361-1.719-2.209-2.442c-0.852-0.73-1.698-1.466-2.617-2.111
		c-0.263-0.19-1.736-1.08-1.771-1.389c-0.28-2.318-0.494-3.555-2.399-5.229c-1.153-1.021-2.861-1.544-4.247-2.136
		c-1.067-0.464-2.028-0.947-3.002-1.576c-0.741-0.478-1.702-1.537-2.018-2.363c-0.361-0.941-0.277-2.011-0.119-2.98
		C77.208,68.67,77.212,68.383,77.303,68.147 M69.252,52.454c1.898-3.963,4.486-7.111,6.588-10.981
		c3.244-5.995,5.128-9.896,7.931-16.661c1.151-2.771,3.277-7.325,4.501-10.069c1.607-3.6,3.325-8.852,7.037-10.687
		c4.647-2.315,8.657-0.287,10.291,4.236c1.676,4.641,0.708,9.957-0.824,14.513c-1.084,3.235-2.712,6.406-4.409,9.371
		c-1.445,2.499-3.423,5.218-5.244,7.452c-2.027,2.494-4.56,4.999-6.815,7.343c-2.782,2.916-5.553,5.852-8.706,8.375
		c-1.604,1.277-3.417,2.567-5.35,3.305c-0.414,0.154-1.883-0.786-1.824-1.06c0.26-1.196,2.109-3.022,2.82-4.014
		c2.091-2.915,4.231-5.778,6.352-8.67c3.074-4.17,6.096-8.387,9.18-12.552c0.464-0.635,1.112-1.162,1.407-1.887
		c0.186-0.456-0.955-0.929-1.172-0.593c-1.125,1.754-2.248,3.518-3.412,5.245c-1.712,2.544-3.424,5.14-5.234,7.61
		c-1.849,2.521-3.823,5.083-5.83,7.486c-1.263,1.536-3.206,4.2-4.932,5.188c-1.186,0.674-2.791-0.224-2.827-1.655
		C68.769,53.293,69.053,52.869,69.252,52.454 M58.41,48.017c1.333,0.369,2.548,0.908,3.336,2.006
		c0.736,1.029,1.053,2.274,0.999,3.537c-0.03,0.545-0.066,1.126-0.335,1.61c-0.232,0.4-0.642,0.743-1.08,0.881
		c-1.891,0.582-4.242-1.036-5.077-2.657c-0.217-0.417-0.42-0.842-0.585-1.28C54.945,50.143,55.586,47.238,58.41,48.017
		 M53.748,60.959c-1.325-0.373-2.543-0.909-3.328-2.011c-0.74-1.035-1.056-2.269-0.997-3.533c0.028-0.546,0.063-1.137,0.336-1.611
		c0.229-0.403,0.636-0.74,1.082-0.88c1.886-0.585,4.236,1.035,5.072,2.653c0.217,0.417,0.42,0.846,0.585,1.28
		C57.218,58.833,56.586,61.74,53.748,60.959 M16.164,103.104c-2.412,0.341-4.968,0.432-7.304-0.22
		c-2.143-0.606-4.224-1.785-5.636-3.417c-1.106-1.273-1.459-3.105-1.425-4.75c0.028-1.415,0.748-2.812,1.6-3.972
		c0.993-1.341,2.381-2.414,3.799-3.357c1.635-1.081,3.465-1.891,5.286-2.681c1.93-0.838,3.919-1.54,5.932-2.183
		c1.968-0.627,3.984-1.133,5.995-1.627c1.726-0.42,3.479-0.769,5.223-1.112c2.841-0.559,5.335-1.134,8.011-2.183
		c1.112-0.438,2.217-0.898,3.326-1.343c1.204-0.489,2.421-0.951,3.621-1.449c1.154-0.489,2.294-1,3.44-1.511
		c0.99-0.443,1.985-0.887,2.964-1.346c0.702-0.326,1.41-0.628,2.083-1.003l0.884-0.507c0.161,0.073,0.354,0.103,0.477,0.226
		c0.126,0.112,0.197,0.284,0.238,0.445c0.034,0.144,0.048,0.302,0,0.449c-0.056,0.169-0.175,0.313-0.298,0.445
		c-0.867,0.968-1.726,1.955-2.677,2.854c-1.07,1.023-2.206,1.992-3.377,2.907c-1.281,1.005-2.624,1.937-3.979,2.855
		c-1.392,0.944-2.808,1.877-4.268,2.734c-1.475,0.874-2.996,1.67-4.512,2.458c-1.49,0.78-2.985,1.536-4.51,2.242
		c-1.425,0.653-2.876,1.263-4.333,1.842c-1.294,0.52-2.658,0.877-3.914,1.455c-0.13,0.064-0.04,0.265-0.061,0.39
		c-0.014,0.086-0.063,0.157-0.063,0.23c0,0.044,0.025,0.08,0.063,0.107c0.143,0.109,0.298,0.336,0.474,0.284
		c1.479-0.505,2.851-1.26,4.272-1.901c1.368-0.622,2.746-1.235,4.09-1.898c1.309-0.646,2.578-1.348,3.859-2.017
		c1.269-0.671,2.553-1.31,3.798-2.014c1.249-0.702,2.469-1.441,3.683-2.185c1.242-0.764,2.473-1.538,3.68-2.35
		c1.228-0.83,2.417-1.706,3.616-2.563c1.256-0.909,2.515-1.809,3.74-2.747c0.123-0.096,0.179-0.25,0.294-0.339
		c0.164-0.112,0.367-0.175,0.536-0.276c0.169-0.098,0.302-0.251,0.477-0.333c0.166-0.072,0.355-0.072,0.533-0.111
		c0.144-0.036,0.278-0.114,0.418-0.114c0.143,0,0.291,0.045,0.413,0.114c0.119,0.064,0.236,0.157,0.298,0.273
		c0.088,0.171,0.214,0.393,0.12,0.565c-1.018,1.666-2.119,3.297-3.384,4.805c-1.709,2.029-3.554,3.956-5.515,5.765
		c-2.284,2.088-4.689,4.063-7.184,5.926c-2.6,1.941-5.257,3.835-8.074,5.479c-2.738,1.6-5.575,3.071-8.545,4.253
		C21.719,101.747,18.987,102.713,16.164,103.104 M63.483,79.099c-0.625,1.749-1.401,3.446-2.281,5.079
		c-1.091,2-2.221,4.013-3.63,5.8c-3.259,4.132-6.423,8.283-10.21,11.967c-3.571,3.466-6.623,6.745-10.959,9.226
		c-4.876,2.783-13.803,5.366-17.596,0.616c-1.707-2.326-0.251-5.591,1.976-7.404c1.576-1.281,3.403-2.001,5.314-2.982
		c5.761-2.962,10.071-5.28,15.196-9.259c5.331-4.149,10.021-7.659,14.61-12.587c0.599-0.643,2.661-2.8,3.629-2.666
		c1.383,0.186,1.215,1.024,0.888,2.391c-0.546,2.289-1.887,4.31-3.179,6.219c-1.634,2.427-3.43,4.536-5.373,6.707
		c-1.607,1.8-3.168,3.463-5.001,5.023c-0.51,0.438-1.099,0.783-1.587,1.246c-0.448,0.444,0.481,1.117,0.565,1.057
		c2.533-1.909,4.725-4.673,6.822-7.081c1.313-1.501,2.474-3.01,3.609-4.646c1.231-1.749,2.375-3.525,3.504-5.342
		c0.639-1.011,1.246-2.042,1.901-3.042c0.175-0.256,0.583-0.686,0.94-0.686C62.921,78.742,63.532,78.963,63.483,79.099
		 M69.305,76.143c-2.978-0.264-5.788-1.688-7.885-3.848c-2.364-2.441-5.707-6.267-4.125-9.865c0.789-1.807,1.912-3.07,3.43-4.317
		c1.575-1.293,3.319-1.308,5.188-0.809c4.939,2.599,11.203,6.826,9.281,13.353c-0.39,1.341-1.189,2.571-2.275,3.452
		C71.992,74.863,70.544,76.256,69.305,76.143 M110.524,110.834c2.958,3.826,7.455,8.535,3.892,13.246
		c-1.151,1.523-5.094,0.358-6.354-0.427c-2.367-1.478-3.954-3.049-5.878-5.08C105.253,120.005,110.434,115.043,110.524,110.834
		 M103.37,102.427c3.928,3.073,6.773,7.505,2.49,12.053c-4.799,5.09-9.433,1.063-12.964-2.808
		C98.038,111.195,101.875,107.855,103.37,102.427 M95.929,94.255c2.444,1.948,3.831,3.028,4.854,5.956
		c0.818,2.349-1.091,5.343-2.848,6.748c-1.726,1.391-3.967,2.05-6.181,1.788c-3.43-0.421-4.777-3.863-6.178-6.465
		C89.689,101.375,92.814,99.102,95.929,94.255 M87.567,86.958c0.459-0.574,0.621-1.328,1.277-0.845
		c1.073,0.801,2.143,1.602,3.212,2.4c0.924,0.691,2.403,3.188,1.958,4.29c-1.231,3.046-5.435,7.062-7.858,6.771
		c-1.554-0.062-2.718,0.222-4.791-1.502c-1.568-1.333-1.666-4.051-1.922-5.561C83.427,91.503,85.803,89.994,87.567,86.958
		 M79.432,76.054c1.975,1.036,3.876,2.178,5.694,3.444c1.452,1.146,1.592,3.263,1.072,6.149c-0.351,1.931-3.219,3.398-4.708,4.255
		c-3.68,2.109-8.586-1.114-8.681-5.251c-0.034-1.636-1.276-5.958-0.495-7.332c0.481-0.863,2.206-1.275,2.87-2.274
		C76.114,73.648,78.04,75.325,79.432,76.054 M76.994,63.131c0.386-0.782,0.919-1.491,1.507-2.125
		c1.667-1.77,3.849-3.019,5.877-4.337c2.315-1.508,4.809-3.139,7.18-4.571c1.775-1.064,3.547-2.029,5.163-3.326
		c1.046-0.846,1.408-1.463-0.288-0.754c-1.792,0.762-3.721,2.034-5.338,3.108c-2.333,1.537-4.602,3.225-6.903,4.824
		c-1.995,1.385-3.971,2.81-5.977,4.193c-0.614,0.423-1.2,0.9-1.853,1.265c-0.105,0.054-0.241-0.013-0.354-0.06
		c-0.495-0.213-0.572-1.473-0.403-1.894c0.035-0.09,0.098-0.178,0.174-0.231c2.958-2.136,5.984-4.741,8.506-7.013
		c4.493-4.053,8.092-7.965,11.622-12c2.687-3.073,6.283-8.49,9.922-14.136c0.362-0.557,0.818-1.056,1.277-1.543
		c1.911-2.062,6.038-5.726,9.17-3.971c2.133,1.202,3.395,3.453,3.3,6.034c-0.172,4.807-3.676,9.543-6.668,13.041
		c-4.517,5.28-9.011,9.399-14.097,13.381c-2.491,1.948-5.055,3.81-7.718,5.519c-2.276,1.46-4.64,2.786-7.079,3.96
		c-1.754,0.843-3.599,1.484-5.455,2.07C78.125,64.702,76.829,63.456,76.994,63.131"/>
	<path clip-path="url(#SVGID_2_)" fill="#fff" d="M232.311,66.765c0-4.329,3.277-7.46,7.344-7.46
		c3.761,0,7.498,2.489,6.941,8.134h-12.823c0.292,3.394,2.897,5.343,5.881,5.354c2.478,0.01,4.484-0.503,5.566-1.935l1.101,0.809
		c-1.403,1.845-3.785,2.663-6.667,2.53C235.593,74.007,232.311,71.359,232.311,66.765 M245.31,66.179
		c-0.028-3.567-2.438-5.558-5.655-5.558c-2.984,0-5.559,2.02-5.881,5.558H245.31z"/>
	<path clip-path="url(#SVGID_2_)" fill="#fff" d="M263.687,53.512V73.99h-1.404v-3.188c-1.2,2.195-3.569,3.424-6.026,3.424
		c-4.038,0-7.228-2.662-7.228-7.462c0-4.77,3.218-7.46,7.256-7.46c2.487,0,4.827,1.052,5.998,3.394v-9.186H263.687z M250.433,66.765
		c0,4.009,2.661,6.058,5.909,6.058c3.395,0,5.909-2.487,5.909-6.086c0-3.6-2.573-6.055-5.909-6.055
		C253.094,60.681,250.433,62.698,250.433,66.765"/>
	<path clip-path="url(#SVGID_2_)" fill="#fff" d="M269.711,54.829c0,1.521-2.311,1.521-2.311,0
		C267.401,53.306,269.711,53.306,269.711,54.829 M267.812,73.992h1.433V59.48h-1.433V73.992z"/>
	<path clip-path="url(#SVGID_2_)" fill="#fff" d="M287.238,59.54v14.45h-1.435v-3.071c-1.403,2.253-3.567,3.308-5.91,3.308
		c-4.035,0-7.342-3.042-7.342-7.462c0-4.419,3.307-7.401,7.342-7.401c2.343,0,4.711,1.083,5.91,3.335V59.54H287.238z
		 M273.984,66.765c0,3.627,2.634,6.058,5.909,6.058c8.046,0,8.046-12.084,0-12.084C276.618,60.738,273.984,63.137,273.984,66.765"/>
	<path clip-path="url(#SVGID_2_)" fill="#fff" d="M292.62,73.99V60.915h-2.954v-1.259h2.954v-1.288
		c0-2.867,1.143-4.943,4.331-4.943c1.083,0,2.049,0.38,2.866,0.994l-0.7,1.053c-0.79-0.468-1.347-0.731-2.226-0.731
		c-1.812,0-2.866,1.111-2.866,3.627v1.288h4.768v1.259h-4.768V73.99H292.62z"/>
	<rect x="302.159" y="53.513" clip-path="url(#SVGID_2_)" fill="#fff" width="1.436" height="20.479"/>
	<polygon clip-path="url(#SVGID_2_)" fill="#fff" points="320.24,59.54 311.433,80.019 309.911,80.019 312.573,73.817 
		306.779,59.54 308.331,59.54 311.696,68.082 313.393,72.266 315.061,68.051 318.688,59.54 	"/>
	<path clip-path="url(#SVGID_2_)" fill="#fff" d="M223.175,59.191c-2.217,0-4.465,1.198-5.338,3.562l-0.016,0.046
		c-0.876-2.364-3.121-3.561-5.338-3.561c-3.532,0-6.042,2.48-6.042,6.071v8.634h1.43V65.31c0-2.773,1.869-4.728,4.611-4.728
		c2.742,0,4.637,2.043,4.637,4.813v8.548h1.431l-0.016-0.224v-8.371c0-2.771,1.898-4.812,4.64-4.812
		c2.743,0,4.609,1.953,4.609,4.726v8.637h1.43v-8.637C229.215,61.673,226.705,59.191,223.175,59.191"/>
	<path clip-path="url(#SVGID_2_)" fill="#fff" d="M322.684,61.275h-0.296V59.8h-0.501v-0.257h1.303V59.8h-0.506V61.275z
		 M324.124,61.275l-0.481-1.341h-0.021l0.016,0.308v1.033h-0.287v-1.732h0.45l0.469,1.342l0.489-1.342h0.431v1.732h-0.305v-1.009
		l0.015-0.329h-0.019l-0.508,1.337H324.124z"/>
</g>
</svg>
